<?xml version="1.0"?>
<svg xmlns="http://www.w3.org/2000/svg" id="Layer_1" data-name="Layer 1" viewBox="0 0 512 512" width="512px" height="512px"><g><title class="active-path" style="fill:#FBFAFA" data-old_color="#F6F6F6">Payment method</title><path d="M288.22,345.272V314.254h95.907A17.894,17.894,0,0,0,402,296.381V44.511a17.894,17.894,0,0,0-17.873-17.873H229.78a17.894,17.894,0,0,0-17.873,17.873V174.693l-67.46,55.868a5.936,5.936,0,0,0-.453.416,34.838,34.838,0,0,0-10.041,24.551V413.116H126a16.019,16.019,0,0,0-16,16v40.246a16.019,16.019,0,0,0,16,16H262.059a16.019,16.019,0,0,0,16-16V429.116a16.019,16.019,0,0,0-16-16h-2.872V379.792A35.092,35.092,0,0,0,288.22,345.272ZM229.78,38.638H384.127A5.88,5.88,0,0,1,390,44.511v251.87a5.88,5.88,0,0,1-5.873,5.873H231.617a22.35,22.35,0,0,1-1.464-7.629l.246-4.25,29.179-29.18a27.806,27.806,0,0,0,0-39.28l-5.133-5.133a6,6,0,0,0-7.966-.461l-22.572,17.872V44.511A5.88,5.88,0,0,1,229.78,38.638Zm36.279,390.478v40.246a4,4,0,0,1-4,4H126a4,4,0,0,1-4-4V429.116a4,4,0,0,1,4-4H262.059A4,4,0,0,1,266.059,429.116Zm-120.106-16V255.528a22.9,22.9,0,0,1,6.4-15.933l59.554-49.321V243.7l-35.158,27.838a6,6,0,0,0,7.449,9.408l65.541-51.9,1.355,1.355a15.794,15.794,0,0,1,0,22.31L220.3,283.505a6,6,0,0,0-1.748,3.9l-.389,6.715c-.007.115-.01.231-.01.347a34.9,34.9,0,0,0,3.443,14.9,33.431,33.431,0,0,1-2.435,32.578,6,6,0,0,0-1.008,3.328V359.79a6,6,0,0,0,12,0V347.018a45.565,45.565,0,0,0,5.609-32.764H276.22v31.018a23.06,23.06,0,0,1-23.033,23.035,6,6,0,0,0-6,6v38.809Z" data-original="#000000" class="active-path" data-old_color="#F6F6F6" fill="#FBFAFA"/><path d="M147.574,468.233A18.273,18.273,0,1,0,129.7,449.965,18.094,18.094,0,0,0,147.574,468.233Zm0-24.537a6.282,6.282,0,1,1-5.872,6.269A6.088,6.088,0,0,1,147.574,443.7Z" data-original="#000000" class="active-path" data-old_color="#F6F6F6" fill="#FBFAFA"/><path d="M306.953,231.144a65.365,65.365,0,1,0-65.364-65.365A65.439,65.439,0,0,0,306.953,231.144Zm0-118.729a53.365,53.365,0,1,1-53.364,53.364A53.424,53.424,0,0,1,306.953,112.415Z" data-original="#000000" class="active-path" data-old_color="#F6F6F6" fill="#FBFAFA"/><path d="M307.06,189.643c-.037,0-.071,0-.107,0s-.07,0-.106,0a9.113,9.113,0,0,1-9-9.1,6,6,0,0,0-12,0,21.133,21.133,0,0,0,15.106,20.225v3.869a6,6,0,0,0,12,0v-3.869a21.1,21.1,0,0,0-6-41.331,9.107,9.107,0,1,1,9.107-9.107,6,6,0,0,0,12,0A21.136,21.136,0,0,0,312.953,130.1v-3.181a6,6,0,0,0-12,0V130.1a21.1,21.1,0,0,0,6,41.332,9.1,9.1,0,0,1,.107,18.207Z" data-original="#000000" class="active-path" data-old_color="#F6F6F6" fill="#FBFAFA"/></g> </svg>
