<?xml version="1.0"?>
<svg xmlns="http://www.w3.org/2000/svg" viewBox="0 0 64 64" width="512px" height="512px" class=""><g><script xmlns=""/><script xmlns=""/><path d="m9.99976 9h44v53h-44z" fill="#b3f2ed" data-original="#B3F2ED" class=""/><path d="m58 40-8 10-3-3-3 3 6 6 11-13z" fill="#2cf45b" data-original="#2CF45B"/><path d="m25 2 2.154 13h9.692l2.154-13z" fill="#f74854" data-original="#F74854"/><circle cx="31.99976" cy="8" fill="#65cecc" r="2" data-original="#65CECC" class=""/><path d="m15.99976 19h32v22h-32z" fill="#65cecc" data-original="#65CECC" class=""/><path d="m34.56329 31.047a4.00006 4.00006 0 1 0 -5.12707 0 3.88955 3.88955 0 0 0 -3.43646 3.85547v6.09753h12v-6.09753a3.88946 3.88946 0 0 0 -3.43647-3.85547z" fill="#e9cd4b" data-original="#E9CD4B" class="active-path" style="fill:#3D94CE" data-old_color="#3D95CF"/><g fill="#837af4"><path d="m14.99976 44h15v2h-15z" data-original="#000000" class="" style="fill:#000000"/><path d="m31.99976 44h6v2h-6z" data-original="#000000" class="" style="fill:#000000"/><path d="m14.99976 50h24v2h-24z" data-original="#000000" class="" style="fill:#000000"/><path d="m39.99976 44h4v2h-4z" data-original="#000000" class="" style="fill:#000000"/><path d="m14.99976 56h9v2h-9z" data-original="#000000" class="" style="fill:#000000"/><path d="m25.99976 56h16v2h-16z" data-original="#000000" class="" style="fill:#000000"/></g><script xmlns=""/></g> </svg>
